<svg width="252" height="49" viewBox="0 0 252 49" fill="none" xmlns="http://www.w3.org/2000/svg">
<path d="M13.5 17.9C8.9 19.3 4.7 18.9 0 15.9C0 17 0.1 18.6 0.2 19.6C2.6 21.5 8.3 22.8 14.4 20.8C25.2 17.2 30.2 22.9 31.4 24C31.7 23 32 21.8 32.2 20.8C25.9 15.2 19.3 16.1 13.5 17.9Z" fill="#5AA5DC"/>
<path d="M12.8 24.2C8.39999 25.7 5.19999 25.6 0.799988 23.3C3.79999 36 14 46.5 14.5 47L15.5 48.1L16.6 47.1C17.1 46.6 26 38 30.2 27.1C30.4 26.8 24.5 20.3 12.8 24.2ZM15.7 43.8C13.6 41.4 8.69999 35.4 5.69999 28.2C7.79999 28.4 10.4 28.2 13.8 27.2C20.8 25.2 24.4 26.7 26.6 28.1C23.2 35.4 17.9 41.4 15.7 43.8Z" fill="#5AA5DC"/>
<path d="M16.6 0C16.5 0 16.4 0 16.3 0C8.50002 0 1.90002 5.5 0.400024 12.8C2.60002 14.1 6.20002 17.2 15 14.6C19.4 13.3 25 11.6 32.4 17.6C32.4 17.3 32.4 17 32.4 16.6C32.7 7.6 25.5 0.2 16.6 0ZM14.1 11.7C8.40003 13.4 5.40002 12.4 3.90002 11.5C5.90002 6.5 10.7 3 16.2 3H16.5C22.1 3.1 26.9 6.8 28.7 11.8C24 9.5 19.5 10 14.1 11.7Z" fill="#5AA5DC"/>
<path d="M223.9 5.80005C218.4 5.80005 213 5.80005 207.5 5.80005C207.5 6.80005 207.5 7.70005 207.5 8.70005C209.6 8.70005 211.8 8.70005 213.9 8.70005C213.9 15.1 213.9 21.6 213.9 28C215 28 216.1 28 217.3 28C217.3 21.5 217.3 15.1 217.3 8.60005C219.5 8.60005 221.7 8.60005 223.9 8.60005C223.9 7.80005 223.9 6.80005 223.9 5.80005Z" fill="#5AA5DC"/>
<path d="M251.2 12H238.7V14.9H243.3V27.8H246.6V14.9H251.2V12Z" fill="#5AA5DC"/>
<path d="M149.3 27.8H152.5V12H149.3L149.2 18H143.4V12H140.1V27.8H143.4V21.2H149.3V27.8Z" fill="#6D6F73"/>
<path d="M196.9 18.8C196.9 16.2 197 15.6 195.4 15C193.7 14.4 191.6 14.8 190.3 16C190 15.7 188.8 14.4 188.4 14.1C189.3 13 190.4 12.3 191.7 12C193.4 11.6 195.1 11.6 196.8 12.2C198.2 12.7 199.3 13.6 199.9 15C200.2 15.6 200.3 16.2 200.3 16.9C200.3 20.3 200.3 27.2 200.3 27.2C199.4 27.6 198.4 27.8 197.5 28C196 28.3 194.5 28.4 193 28.2C191.8 28.1 190.6 27.8 189.6 27.1C188.1 26 187.7 24.5 187.9 22.8C188.2 20.2 190 19 192.1 18.5C193.6 18.2 195 18.3 196.4 18.7C196.6 18.7 196.7 18.7 196.9 18.8ZM197 21.4C196 21 194.7 20.8 193.6 20.9C193.1 21 192.6 21.1 192.2 21.4C191.5 21.9 191.1 22.6 191.2 23.5C191.3 24.4 191.9 24.9 192.8 25.1C193.7 25.3 195.7 25.3 197 24.9C197 23.8 197 21.4 197 21.4Z" fill="#6D6F73"/>
<path d="M187.3 12H183.1C181.2 14.1 178.8 16.6 176.9 18.6V12H173.6C173.6 14.2 173.6 27.8 173.6 27.8H176.9V23.1L178.3 21.6L183.1 27.8H187C184.5 24.6 181.7 20.9 180.5 19.3L187.3 12Z" fill="#6D6F73"/>
<path d="M165.8 12L160 22.7V12H156.7V27.8H160H160.5L166.3 17.2V27.8H169.6V12H165.8Z" fill="#6D6F73"/>
<path d="M132.7 19.9L137.9 12H134L130.7 17.3L127.3 12H123.4L128.8 19.9L123.4 27.8H127.3L130.7 22.6L134 27.8H137.9L132.7 19.9Z" fill="#6D6F73"/>
<path d="M120.9 24.9C119.6 26.9 117.8 28 115.5 28.1C114 28.2 112.6 27.9 111.4 27.1C110 26.2 109.1 25 109 23.3C108.9 22.1 108.9 17.5 109 16.3C109.1 14.6 110 13.4 111.5 12.6C112.9 11.8 114.5 11.5 116.1 11.7C117.3 11.8 118.4 12.2 119.4 12.9C120.7 13.8 121.3 15.1 121.4 16.6C121.5 18.2 121.5 21.5 121.5 21.5H112.4C112.4 21.5 112.4 22.6 112.5 23.1C112.7 24.1 113.5 24.6 114.4 24.8C115.7 25.1 117.3 24.8 118.2 23.3C119 23.8 119.9 24.3 120.9 24.9ZM118.1 18.6C118.1 18 118.1 17.5 118.1 16.9C118.1 16.1 117.6 15.6 116.9 15.3C115.8 14.8 114.7 14.8 113.6 15.2C112.9 15.5 112.4 16 112.3 16.7C112.2 17.3 112.3 17.9 112.3 18.6C114.3 18.6 116.2 18.6 118.1 18.6Z" fill="#6D6F73"/>
<path d="M106.9 12H94.5V14.9H99V27.8H102.4V14.9H106.9V12Z" fill="#6D6F73"/>
<path d="M88.6 12V18H82.7V12H79.4V27.8H82.7V21.2H88.6V27.8H91.9V12H88.6Z" fill="#6D6F73"/>
<path d="M72.3 18.8C72.3 16.2 72.4 15.6 70.8 15C69.1 14.4 67 14.8 65.7 16C65.4 15.7 64.2 14.4 63.8 14.1C64.7 13 65.8 12.3 67.2 12C68.9 11.6 70.6 11.6 72.3 12.2C73.7 12.7 74.8 13.6 75.4 15C75.7 15.6 75.8 16.2 75.8 16.9C75.8 20.3 75.8 27.1 75.8 27.2C74.9 27.6 73.9 27.8 73 28C71.5 28.3 70 28.4 68.5 28.2C67.3 28.1 66.1 27.8 65.1 27.1C63.6 26 63.2 24.5 63.4 22.8C63.7 20.2 65.5 19 67.6 18.5C69.1 18.2 70.5 18.3 71.9 18.7C71.9 18.7 72.1 18.7 72.3 18.8ZM72.3 21.4C71.3 21 70 20.8 68.9 20.9C68.4 21 67.9 21.1 67.5 21.4C66.8 21.9 66.4 22.6 66.5 23.5C66.6 24.4 67.2 24.9 68.1 25.1C69 25.3 71 25.3 72.3 24.9C72.3 23.8 72.3 21.4 72.3 21.4Z" fill="#6D6F73"/>
<path d="M58.7 21.7C59.7 22.2 60.8 22.7 61.8 23.2C61.2 24.4 60.4 25.4 59.4 26.3C57.6 27.7 55.7 28.3 53.4 28.3C51.4 28.2 49.5 27.7 47.9 26.5C46.4 25.3 45.4 23.8 45.4 21.8C45.4 18.6 45.4 15.4 45.4 12.3C45.4 10.6 46.2 9.09999 47.6 7.99999C49.6 6.29999 51.9 5.79999 54.4 5.89999C57.8 6.09999 60.2 7.79999 61.8 10.8C60.7 11.3 59.7 11.8 58.7 12.3C58.2 11.8 57.8 11.2 57.3 10.7C56.3 9.79999 55 9.39999 53.7 9.39999C52.6 9.39999 51.5 9.59999 50.6 10.2C49.5 10.8 48.9 11.7 48.9 13C48.9 15.6 48.9 18.2 48.9 20.8C48.9 22.4 49.6 23.5 51 24.1C53.1 25 55.1 24.9 57.1 23.5C57.6 23.1 58.2 22.3 58.7 21.7Z" fill="#6D6F73"/>
<path d="M227.1 12C227.1 12 227.1 19 227.1 22C227.1 23.9 228.1 24.7 229.6 25C230.7 25.2 231.7 25.1 232.7 24.6C232.8 24.5 232.9 24.4 233.1 24.3C233.1 20.2 233.1 11.9 233.1 11.9H236.4C236.4 11.9 236.4 22.7 236.4 27.8C236.4 28.5 236.4 29.2 236.2 29.9C235.7 31.6 234.6 32.8 233 33.4C230.2 34.4 227.6 34.1 225.2 32.4C224.7 32.1 224.3 31.6 223.9 31.1C224.6 30.4 225.3 29.8 226 29.2C226.2 29.4 226.3 29.5 226.5 29.6C227.9 30.8 229.5 31.2 231.3 30.7C232.5 30.4 233.6 29 233.2 27.5C232 27.9 230.8 28.1 229.6 28C227.5 27.8 225.7 27 224.5 25.1C224.1 24.4 223.8 23.6 223.8 22.8C223.8 19.3 223.8 11.9 223.8 11.9L227.1 12Z" fill="#5AA5DC"/>
<path d="M177.6 42.5999C177.3 43.1999 176.9 43.5 176.2 43.7C175.9 43.7 175.7 43.7 175.4 43.7C175 43.7 174.7 43.6 174.3 43.4C174 43.2 173.8 42.9 173.8 42.5C173.8 41.9 173.8 41.1999 173.8 40.5999C173.8 40.0999 173.8 39.7 173.8 39.2C173.8 38.7 174.1 38.4 174.5 38.2C174.9 38 175.3 37.9 175.7 37.9C176.2 37.9 176.8 37.9999 177.2 38.2999C177.4 38.3999 177.5 38.5999 177.6 38.7999C177.7 38.7999 177.8 38.7 177.9 38.7C178.1 38.6 178.4 38.3999 178.6 38.2999C178.1 37.3999 177.4 36.9999 176.7 36.7999C176.5 36.6999 176.3 36.7 176.1 36.7C175.9 36.7 175.6 36.7 175.4 36.7C175.2 36.7 175 36.7999 174.8 36.7999C173.7 37.0999 172.7 37.7999 172.6 39.2999C172.6 40.2999 172.6 41.4 172.6 42.4C172.6 43.1 172.9 43.7 173.5 44.2C174.6 45.1 176.6 45.2 177.8 44.2C178.2 43.9 178.5 43.5 178.7 42.9C178.4 42.7 178.1 42.6 177.7 42.5C177.6 42.5 177.6 42.5999 177.6 42.5999Z" fill="#6D6F73"/>
<path d="M62.6 37.9H65.1V44.7H66.3V37.9H68.8V36.7H62.6V37.9Z" fill="#6D6F73"/>
<path d="M100.7 37.9H103.2V44.7H104.4V37.9H106.9V36.7H100.7V37.9Z" fill="#6D6F73"/>
<path d="M195.8 37.9H198.2V44.7H199.5V37.9H201.9V36.7H195.8V37.9Z" fill="#6D6F73"/>
<path d="M111.4 39.5H107.4V40.7H111.4V39.5Z" fill="#6D6F73"/>
<path d="M60.1 40H56.4V36.7H55.2V44.7H56.4V41.0999H60.1V44.7H61.4V36.7H60.1V40Z" fill="#6D6F73"/>
<path d="M90.7 40H87V36.7H85.7V44.7H87V41.0999H90.7V44.7H91.9V36.7H90.7V40Z" fill="#6D6F73"/>
<path d="M165 40H161.3V36.7H160.1V44.7H161.3V41.0999H165V44.7H166.3V36.7H165V40Z" fill="#6D6F73"/>
<path d="M193.2 40H189.5V36.7H188.3V44.7H189.5V41.0999H193.2V44.7H194.4V36.7H193.2V40Z" fill="#6D6F73"/>
<path d="M223.2 40H219.5V36.7H218.3V44.7H219.5V41.0999H223.2V44.7H224.4V36.7H223.2V40Z" fill="#6D6F73"/>
<path d="M131.4 44.5999V44.7H132.6V37.9H136.2V36.7H131.4V44.5999Z" fill="#6D6F73"/>
<path d="M51.6 36.7L48.2 43V36.7H47V44.7H48.6L52 38.5V44.7H53.2V36.7H51.6Z" fill="#6D6F73"/>
<path d="M156.2 36.7L152.8 43V36.7H151.6V44.7H153.2L156.6 38.5V44.7H157.8V36.7H156.2Z" fill="#6D6F73"/>
<path d="M231.3 36.7L227.9 43V36.7H226.7V44.7H228.3L231.7 38.5V44.7H232.9V36.7H231.3Z" fill="#6D6F73"/>
<path d="M247.2 36.7L243.8 43V36.7H242.6V44.7H244.1L247.5 38.5V44.7H248.8V36.7H247.2Z" fill="#6D6F73"/>
<path d="M74.7 37.2999C74.2 36.8999 73.6 36.6999 72.9 36.5999C72 36.4999 71.2 36.6999 70.5 37.0999C69.8 37.4999 69.4 38.1999 69.4 38.9999C69.4 40.0999 69.4 41.1999 69.4 42.3999C69.4 43.1999 69.8 43.8999 70.5 44.2999C71.5 44.9999 72.6 44.9999 73.8 44.5999C74.5 44.2999 75.1 43.7999 75.4 43.0999C75 42.8999 74.7 42.7999 74.4 42.6999C74.2 42.8999 74 43.1999 73.8 43.2999C73.1 43.7999 72 43.7999 71.3 43.3999C71 43.1999 70.7 42.8999 70.7 42.4999C70.7 42.0999 70.7 41.2999 70.7 41.2999H75.6C75.6 41.2999 75.6 39.6999 75.6 38.9999C75.6 38.2999 75.3 37.6999 74.7 37.2999ZM74.5 40.2999H70.8C70.8 40.2999 70.8 39.4999 70.8 39.0999C70.8 38.6999 71.2 38.1999 71.7 37.9999C72.5 37.6999 73.2 37.6999 73.9 38.1999C74.3 38.4999 74.5 38.7999 74.5 39.2999C74.5 39.4999 74.5 40.2999 74.5 40.2999Z" fill="#6D6F73"/>
<path d="M99.1 37.2999C98.6 36.8999 98 36.6999 97.3 36.5999C96.4 36.4999 95.6 36.6999 94.9 37.0999C94.2 37.4999 93.8 38.1999 93.8 38.9999C93.8 40.0999 93.8 41.1999 93.8 42.3999C93.8 43.1999 94.2 43.8999 94.9 44.2999C95.9 44.9999 97 44.9999 98.2 44.5999C98.9 44.2999 99.5 43.7999 99.8 43.0999C99.4 42.8999 99.1 42.7999 98.8 42.6999C98.6 42.8999 98.4 43.1999 98.2 43.2999C97.5 43.7999 96.4 43.7999 95.7 43.3999C95.4 43.1999 95.1 42.8999 95.1 42.4999C95.1 42.0999 95.1 41.2999 95.1 41.2999H100C100 41.2999 100 39.6999 100 38.9999C99.9 38.2999 99.6 37.6999 99.1 37.2999ZM98.8 40.2999H95.1C95.1 40.2999 95.1 39.4999 95.1 39.0999C95.1 38.6999 95.5 38.1999 96 37.9999C96.8 37.6999 97.5 37.6999 98.2 38.1999C98.6 38.4999 98.8 38.7999 98.8 39.2999C98.8 39.4999 98.8 40.2999 98.8 40.2999Z" fill="#6D6F73"/>
<path d="M207.9 37.2999C207.4 36.8999 206.8 36.6999 206.1 36.5999C205.2 36.4999 204.4 36.6999 203.7 37.0999C203 37.4999 202.6 38.1999 202.6 38.9999C202.6 40.0999 202.6 41.1999 202.6 42.3999C202.6 43.1999 203 43.8999 203.7 44.2999C204.7 44.9999 205.8 44.9999 207 44.5999C207.7 44.2999 208.3 43.7999 208.6 43.0999C208.2 42.8999 207.9 42.7999 207.6 42.6999C207.4 42.8999 207.2 43.1999 207 43.2999C206.3 43.7999 205.2 43.7999 204.5 43.3999C204.2 43.1999 203.9 42.8999 203.9 42.4999C203.9 42.0999 203.9 41.2999 203.9 41.2999H208.8C208.8 41.2999 208.8 39.6999 208.8 38.9999C208.7 38.2999 208.4 37.6999 207.9 37.2999ZM207.6 40.2999H203.9C203.9 40.2999 203.9 39.4999 203.9 39.0999C203.9 38.6999 204.3 38.1999 204.8 37.9999C205.6 37.6999 206.3 37.6999 207 38.1999C207.4 38.4999 207.6 38.7999 207.6 39.2999C207.6 39.4999 207.6 40.2999 207.6 40.2999Z" fill="#6D6F73"/>
<path d="M184.4 36.7999C183.6 36.4999 182.8 36.3999 181.9 36.6999C181.2 36.8999 180.6 37.1999 180.1 37.7999C180.3 38.0999 180.8 38.5999 180.8 38.5999L180.9 38.4999C181.7 37.7999 182.7 37.5999 183.7 37.9999C184.1 38.1999 184.6 38.4999 184.6 38.9999C184.6 39.3999 184.6 39.7999 184.6 40.2999C184.4 40.2999 184.3 40.1999 184.2 40.1999C183.3 39.8999 182.4 39.7999 181.6 40.0999C180.8 40.2999 180.2 40.6999 179.9 41.4999C179.7 41.8999 179.7 42.2999 179.7 42.6999C179.8 43.4999 180.2 44.1999 180.9 44.5999C181.4 44.8999 182.3 44.9999 182.9 44.9999C183.5 44.9999 184.5 44.7999 184.8 44.7999C185.3 44.6999 185.9 44.4999 185.9 44.4999C185.9 44.4999 185.9 40.9999 185.9 39.2999C186 37.9999 185.5 37.2999 184.4 36.7999ZM184.8 43.6999C184.5 43.6999 184.3 43.7999 184 43.7999C183.4 43.7999 182.8 43.8999 182.3 43.7999C181.3 43.5999 181 42.7999 181.2 42.0999C181.3 41.3999 181.8 41.0999 182.4 40.8999C183.2 40.6999 184 40.8999 184.8 41.0999C184.8 41.9999 184.8 42.7999 184.8 43.6999Z" fill="#6D6F73"/>
<path d="M141.2 36.7999C140.4 36.4999 139.6 36.3999 138.7 36.6999C138 36.8999 137.4 37.1999 136.9 37.7999C137.1 38.0999 137.6 38.5999 137.6 38.5999L137.7 38.4999C138.5 37.7999 139.5 37.5999 140.5 37.9999C140.9 38.1999 141.4 38.4999 141.4 38.9999C141.4 39.3999 141.4 39.7999 141.4 40.2999C141.2 40.2999 141.1 40.1999 141 40.1999C140.1 39.8999 139.2 39.7999 138.3 40.0999C137.5 40.2999 136.9 40.6999 136.6 41.4999C136.4 41.8999 136.4 42.2999 136.4 42.6999C136.5 43.4999 136.8 44.1999 137.6 44.5999C138.2 44.8999 139 44.9999 139.6 44.9999C140.2 44.9999 141.2 44.7999 141.5 44.7999C142 44.6999 142.6 44.4999 142.6 44.4999C142.6 44.4999 142.6 40.9999 142.6 39.2999C142.8 37.9999 142.3 37.2999 141.2 36.7999ZM141.6 43.6999C141.3 43.6999 141.1 43.7999 140.8 43.7999C140.2 43.7999 139.6 43.8999 139.1 43.7999C138.1 43.5999 137.8 42.7999 138 42.0999C138.1 41.3999 138.6 41.0999 139.2 40.8999C140 40.6999 140.8 40.8999 141.6 41.0999C141.6 41.9999 141.6 42.7999 141.6 43.6999Z" fill="#6D6F73"/>
<path d="M127.7 36.7999C126.9 36.4999 126.1 36.3999 125.2 36.6999C124.5 36.8999 123.9 37.1999 123.4 37.7999C123.6 38.0999 124.1 38.5999 124.1 38.5999L124.2 38.4999C125 37.7999 126 37.5999 127 37.9999C127.4 38.1999 127.9 38.4999 127.9 38.9999C127.9 39.3999 127.9 39.7999 127.9 40.2999C127.8 40.2999 127.6 40.1999 127.5 40.1999C126.6 39.8999 125.7 39.7999 124.8 40.0999C124 40.2999 123.4 40.6999 123.1 41.4999C122.9 41.8999 122.9 42.2999 122.9 42.6999C123 43.4999 123.3 44.1999 124.1 44.5999C124.6 44.8999 125.5 44.9999 126.1 44.9999C126.7 44.9999 127.7 44.7999 128 44.7999C128.5 44.6999 129.1 44.4999 129.1 44.4999C129.1 44.4999 129.1 40.9999 129.1 39.2999C129.2 37.9999 128.7 37.2999 127.7 36.7999ZM128 43.6999C127.7 43.6999 127.5 43.7999 127.2 43.7999C126.6 43.7999 126 43.8999 125.5 43.7999C124.5 43.5999 124.2 42.7999 124.4 42.0999C124.5 41.3999 125 41.0999 125.6 40.8999C126.4 40.6999 127.2 40.8999 128 41.0999C128 41.9999 128 42.7999 128 43.6999Z" fill="#6D6F73"/>
<path d="M83 37.3C82.3 36.7 81.5 36.5 80.6 36.6C79.9 36.6 79.2 36.7 78.5 36.9C78.3 37 77.9 37.1 77.7 37.2V47.5C78.2 47.5 78.7 47.5 78.9 47.5C78.9 46.5 78.9 45.5 78.9 44.4C78.9 44.4 79.8 44.9 81 44.8C81.7 44.8 82.3 44.6 82.8 44.2C83.5 43.7 83.9 43.1 83.9 42.3C83.9 41.2 83.9 40.1 83.9 39C83.8 38.3 83.5 37.8 83 37.3ZM82.6 42.1C82.6 42.9 82.1 43.5 81.2 43.6C80.5 43.7 79.9 43.6 79.2 43.4C79.1 43.4 79 43.3 78.8 43.3C78.8 41.5 78.8 39.7 78.8 37.9C79.1 37.9 79.3 37.8 79.6 37.8C80.2 37.8 80.7 37.7 81.3 37.8C81.6 37.9 81.8 38 82 38.2C82.4 38.5 82.5 38.9 82.5 39.3C82.6 40.2 82.6 41.2 82.6 42.1Z" fill="#6D6F73"/>
<path d="M215.3 36.7L213.2 39.7L211.2 36.7H209.7L212.5 40.7L209.8 44.7H211.2L213.2 41.7999L215.2 44.7H216.7L214 40.7L216.7 36.7H215.3Z" fill="#6D6F73"/>
<path d="M117.6 41.7999L115.2 36.7H113.6V44.7H114.9V38.7999L117.2 43.7H118L120.3 38.7999V44.7H121.5V36.7H120L117.6 41.7999Z" fill="#6D6F73"/>
<path d="M148.9 40.4999C148.8 40.4999 148.8 40.3999 148.7 40.3999C148.8 40.3999 148.8 40.2999 148.8 40.2999C148.8 40.2999 148.9 40.2999 148.9 40.1999C149.4 39.7999 149.6 39.2999 149.6 38.6999C149.6 37.7999 149.1 37.0999 148.2 36.7999C147.6 36.5999 147.1 36.4999 146.5 36.5999C145.6 36.6999 144.8 37.0999 144.2 37.9999C144.5 38.1999 144.8 38.3999 145 38.5999C145 38.5999 145.3 38.2999 145.5 38.0999C146.2 37.6999 146.9 37.6999 147.6 37.8999C147.9 37.9999 148.2 38.1999 148.2 38.5999C148.3 39.2999 148 39.8999 147.3 39.9999C146.9 40.0999 146.5 40.0999 145.7 40.0999V41.0999C146 41.0999 146.5 41.0999 146.7 41.0999C147.1 41.0999 147.4 41.0999 147.7 41.1999C148.3 41.3999 148.5 41.7999 148.5 42.4999C148.5 43.0999 148.2 43.3999 147.7 43.5999C147.3 43.6999 146.9 43.7999 146.5 43.6999C145.9 43.6999 145.3 43.3999 144.9 42.8999C144.9 42.8999 144.9 42.7999 144.8 42.7999L143.9 43.3999C144.1 43.7999 144.5 44.1999 144.9 44.3999C145.8 44.9999 147.1 44.9999 148.3 44.5999C149.1 44.2999 149.7 43.6999 149.8 42.7999C150.1 41.9999 149.8 40.9999 148.9 40.4999Z" fill="#6D6F73"/>
<path d="M239.9 36.7L236.2 40.4V36.7H235V44.7H236.2V42.0999L237.1 41.2L239.9 44.7H241.4L237.9 40.4L241.5 36.7H239.9Z" fill="#6D6F73"/>
</svg>
